<svg id="Capa_1" data-name="Capa 1" xmlns="http://www.w3.org/2000/svg" viewBox="0 0 384 384"><defs><style>.cls-1{fill:#fff;}.cls-2{fill:#ec5242;}</style></defs><path class="cls-1" d="M87.58,384V368.26h27.9V344.1H80.16v-80h39.38V248.13H80.17v-79.9h223V248H271.77v15.86h31.28V344H267.64v24h28v16ZM287.33,184.25H96v47.4H287.33Zm0,96H96v47.39H287.33Zm-35.94,64.11H132v23.39H251.39ZM136,248.24v15.55H255.21V248.24Z"/><path class="cls-1" d="M0,189c1.47-6.41,2.41-13,4.5-19.19A68.71,68.71,0,0,1,37,130.75c2.71-1.52,3.37-3,3-6.14-5.48-42.89,30.44-81.86,73.16-79.43a67.7,67.7,0,0,1,37.38,13.65c.87.65,1.79,1.23,2.75,1.89,2.38-4.74,4.38-9.47,7-13.81,16-26.53,39.19-42.31,70.1-46.27A8.12,8.12,0,0,0,232.05,0h15c8.2,2,16.82,2.94,24.54,6.11,35.21,14.45,55.7,40.74,60.89,78.69,1.63,11.92.38,23.67-2.66,35.26-.25,1-.44,1.93-.74,3.29,23.92,7,40.82,21.83,49.63,45.27A71.86,71.86,0,0,1,380,216.07c-10,32.41-39.71,48.24-68.62,47.69V248.12c18.63-.65,34.81-6.43,46.14-22,7-9.64,9.88-20.69,9.7-32.45-.24-16.23-6.14-30.19-18-41.44s-26.39-15-42.67-15.36c2.07-5.32,4-10,5.71-14.72,16.31-44.9-10.64-94.23-57.07-104.54-30.9-6.86-64.77,8.7-81,36.88C167.79,65.63,165,77.83,162.46,90.2c-.22,1.09-.51,2.17-.94,4-2.42-3-4.55-5.44-6.53-8C148.7,78,141.54,70.87,132.06,66.25c-23.48-11.45-53.12-3-67.15,19.2-9.53,15-11.82,31-7,48.05.4,1.44.79,2.88,1.26,4.58C27.39,150,11.25,172.37,17.57,206.42c5.34,28.74,26.52,40.19,54.11,41.81V264c-12.84,0-24.89-2.61-36-8.67C15.37,244.25,4,227,.71,204.22A18.24,18.24,0,0,0,0,201.75Z"/><path class="cls-2" d="M287.33,184.25v47.4H96v-47.4ZM111.9,215.79h63.57V200.38H111.9Zm159.4-15.45H255.7v15.48h15.6Zm-31.9,0H223.82v15.42H239.4Z"/><path class="cls-2" d="M287.33,280.25v47.39H96V280.25ZM112,296.27v15.54h63.49V296.27Zm143.68,15.5h15.6V296.25h-15.6Zm-16.38,0V296.28H223.81V311.8Z"/><path class="cls-1" d="M111.9,215.79V200.38h63.57v15.41Z"/><path class="cls-1" d="M271.3,200.34v15.48H255.7V200.34Z"/><path class="cls-1" d="M239.4,200.3v15.42H223.82V200.3Z"/><path class="cls-1" d="M112,296.27h63.49v15.54H112Z"/><path class="cls-1" d="M255.68,311.77V296.25h15.6v15.52Z"/><path class="cls-1" d="M239.3,311.8H223.81V296.28H239.3Z"/></svg>