<svg id="Capa_1" data-name="Capa 1" xmlns="http://www.w3.org/2000/svg" viewBox="0 0 384 384"><defs><style>.cls-1{fill:#fff;}.cls-2{fill:#ec5242;}</style></defs><path class="cls-1" d="M227.75,300H32.67c-13.74,0-20.76-7-20.76-20.75V32.45c0-13.53,7-20.58,20.54-20.58H351.57C364.84,11.87,372,19,372,32.19q0,153.78,0,307.56c0,19.76-12.55,32.28-32.34,32.28q-39.75,0-79.5,0C240.59,372,228,359.46,228,340q0-19.31,0-38.63C227.94,301.1,227.87,300.85,227.75,300ZM23.92,72.05V279.36c0,6.89,1.74,8.64,8.62,8.64H228v-5q0-53.64,0-107.28c0-19.07,12.68-31.8,31.67-31.81q35.07,0,70.13,0c10.29,0,20.84-1.29,30,6.1v-78ZM240.23,192.12v131.6H359.8V192.12ZM23.94,59.64H360c0-9,0-17.71,0-26.44,0-7.87-1.47-9.32-9.43-9.32H33.36c-1.13,0-2.26-.06-3.37,0-3.6.25-6,2.36-6,5.91C23.85,39.67,23.94,49.53,23.94,59.64ZM360,179.87c0-2.17,0-4,0-5.87-.23-10.26-7.89-18-18.18-18q-41.82-.12-83.64,0c-12.48.05-20.89,11.61-17.59,23.9ZM240.2,336.16c-2.19,16.09,8.28,24.36,21.53,24,26.11-.61,52.25-.17,78.38-.18,13.87,0,22.07-10.06,19.4-23.87Z"/><path class="cls-2" d="M23.94,59.64c0-10.11-.09-20,0-29.83.05-3.55,2.41-5.66,6-5.91,1.11-.08,2.24,0,3.37,0h317.2c8,0,9.43,1.45,9.43,9.32,0,8.73,0,17.46,0,26.44Zm213.4-23.76H135a21.15,21.15,0,0,0-3.74.1c-3.24.58-5.19,2.57-5.19,5.89s2,5.31,5.17,5.92a18.91,18.91,0,0,0,3.37.09H339.35a18,18,0,0,0,3.37-.09c3.22-.6,5.19-2.59,5.19-5.9s-2-5.32-5.18-5.91a21.15,21.15,0,0,0-3.74-.1Zm-192.45,0c-6.1,0-9,1.93-8.94,6s2.86,6,9,6,9-2,9-6S51,35.88,44.89,35.88ZM68.67,47.83v.05c.88,0,1.75,0,2.63,0,4-.16,6.67-2.6,6.6-6.13S75.29,36,71.42,35.9a46,46,0,0,0-6,.06A5.8,5.8,0,0,0,60,42c.19,3.32,2.09,5.26,5.33,5.8A19.82,19.82,0,0,0,68.67,47.83Zm24.17.05c.75,0,1.5,0,2.25,0,4.15-.12,6.76-2.39,6.81-5.91S99.34,36,95.27,35.89c-1.5,0-3,0-4.5,0C86.62,36,84,38.27,84,41.79s2.63,6,7,6.09C91.59,47.9,92.21,47.88,92.84,47.88Z"/><path class="cls-2" d="M360,179.87H240.57c-3.3-12.29,5.11-23.85,17.59-23.9q41.82-.15,83.64,0c10.29,0,17.95,7.77,18.18,18C360,175.85,360,177.7,360,179.87Zm-60-6c2.12,0,4.26.14,6.37,0A5.89,5.89,0,0,0,312,168a5.81,5.81,0,0,0-5.59-5.93c-4.24-.2-8.51-.19-12.75,0a5.8,5.8,0,0,0-5.6,5.91,5.88,5.88,0,0,0,5.59,5.94C295.71,174.05,297.84,173.91,300,173.91Z"/><path class="cls-2" d="M240.2,336.16H359.51C362.18,350,354,360,340.11,360c-26.13,0-52.27-.43-78.38.18C248.48,360.52,238,352.25,240.2,336.16ZM300,342H294.4a6.19,6.19,0,0,0-.75,0A6,6,0,0,0,288,348a5.8,5.8,0,0,0,5.55,6c4.24.21,8.51.2,12.75,0a5.83,5.83,0,0,0,5.64-5.89c0-3.27-2.38-5.77-5.93-6C304,341.94,302,342,300,342Z"/><path class="cls-1" d="M125.64,252H44.25c-6.44,0-8.33-1.85-8.33-8.18V115.87c0-5.94,2-8,7.79-8q82.14,0,164.28,0c5.94,0,8,2,8,7.79q0,64.16,0,128.3c0,6.05-2,8-8.17,8Q166.72,252,125.64,252Zm19.55-44.24c.89-1.16,1.6-2,2.23-2.9,4.81-6.85,9.58-13.72,14.4-20.56,4.13-5.85,8.17-5.85,12.29,0q13.56,19.32,27.07,38.68c.69,1,1.45,1.9,2.58,3.37V120.14H48.13V224.39c1.17-1.73,1.94-2.79,2.63-3.9L95.42,149c4.11-6.57,8.94-6.53,13.1.11q15.8,25.24,31.57,50.51C141.72,202.24,143.37,204.84,145.19,207.74Zm-92.31,32H151l-49.07-78.44C85.41,187.72,69.27,213.52,52.88,239.73Zm145.56.24L168,196.42c-5.2,7.42-10.09,14.3-14.8,21.3-.47.71-.19,2.36.32,3.22q5.18,8.67,10.67,17.14a4.12,4.12,0,0,0,2.81,1.81C177.17,240,187.37,240,198.44,240Z"/><path class="cls-1" d="M318.08,216c-.32,1.33-.59,2.68-1,4L294.5,299.12c-.24.84-.45,1.69-.76,2.51-1.25,3.33-4.34,5-7.38,4.13a6,6,0,0,1-4-7.74c2.32-8.42,4.77-16.8,7.16-25.2q8-27.9,15.92-55.79a18.73,18.73,0,0,1,1.38-3.87c1.42-2.61,3.92-4,6.57-2.86,2.09.91,3.6,3.16,5.36,4.81Z"/><path class="cls-1" d="M339.6,258c-6.6-6.58-12.78-12.75-19-18.9-2.21-2.2-3.43-4.64-1.87-7.72,1.74-3.43,6-4.71,8.85-2,8.49,8.1,16.77,16.44,24.94,24.87,2.43,2.51,2,5.59-.73,8.37q-11.56,11.75-23.32,23.32c-2.77,2.73-6.26,2.76-8.7.42s-2.51-6.07.34-9C326.44,271,332.85,264.72,339.6,258Z"/><path class="cls-1" d="M260,257.49l17.81,17.78c.79.79,1.63,1.55,2.35,2.4,2.38,2.82,2.35,6.06,0,8.43a5.69,5.69,0,0,1-8.4.06q-12.17-11.91-24.06-24.1c-2.52-2.59-2.4-5.75.18-8.39q11.79-12,23.82-23.83a5.8,5.8,0,0,1,8.41-.18c2.48,2.36,2.62,5.92,0,8.69-5.28,5.48-10.7,10.82-16.13,16.16A39.15,39.15,0,0,1,260,257.49Z"/><path class="cls-1" d="M237.34,35.88H339a21.15,21.15,0,0,1,3.74.1c3.23.59,5.18,2.59,5.18,5.91s-2,5.3-5.19,5.9a18,18,0,0,1-3.37.09H134.56a18.91,18.91,0,0,1-3.37-.09C128,47.18,126,45.2,126,41.87s2-5.31,5.19-5.89a21.15,21.15,0,0,1,3.74-.1Z"/><path class="cls-1" d="M44.89,35.88c6.15,0,9,1.88,9,6s-2.87,6-9,6-9-1.89-9-6S38.79,35.88,44.89,35.88Z"/><path class="cls-1" d="M68.67,47.83a19.82,19.82,0,0,1-3.36,0c-3.24-.54-5.14-2.48-5.33-5.8a5.8,5.8,0,0,1,5.45-6,46,46,0,0,1,6-.06c3.87.13,6.4,2.47,6.48,5.85s-2.55,6-6.6,6.13c-.88,0-1.75,0-2.63,0Z"/><path class="cls-1" d="M92.84,47.88c-.63,0-1.25,0-1.88,0-4.37-.1-7.06-2.44-7-6.09s2.66-5.79,6.81-5.9c1.5,0,3,0,4.5,0C99.34,36,102,38.44,101.9,42s-2.66,5.79-6.81,5.91C94.34,47.9,93.59,47.88,92.84,47.88Z"/><path class="cls-1" d="M300,173.91c-2.13,0-4.26.14-6.37,0a5.88,5.88,0,0,1-5.59-5.94,5.8,5.8,0,0,1,5.6-5.91c4.24-.19,8.51-.2,12.75,0A5.81,5.81,0,0,1,312,168a5.89,5.89,0,0,1-5.61,5.92C304.23,174.05,302.09,173.91,300,173.91Z"/><path class="cls-1" d="M300,342c2,0,4-.09,6,0,3.55.23,6,2.73,5.93,6a5.83,5.83,0,0,1-5.64,5.89c-4.24.19-8.51.2-12.75,0a5.8,5.8,0,0,1-5.55-6,6,6,0,0,1,5.64-5.92,6.19,6.19,0,0,1,.75,0Z"/><path class="cls-1" d="M149.84,132A18,18,0,1,1,132,150.23,18,18,0,0,1,149.84,132Zm6.08,17.84a6,6,0,1,0-5.74,6.12A6,6,0,0,0,155.92,149.79Z"/></svg>