<svg id="Capa_1" data-name="Capa 1" xmlns="http://www.w3.org/2000/svg" viewBox="0 0 384 384"><defs><style>.cls-1{fill:#fff;}.cls-2{fill:#ec5242;}</style></defs><path class="cls-1" d="M167.25,0c3.51.82,7.11,1.37,10.52,2.49,18.5,6.13,29.39,19.15,30.94,38.33,1.21,15,.57,30.21-.23,45.27-.54,10.16-5.77,18.67-12.94,26a7.58,7.58,0,0,0-1.82,5.12,95.76,95.76,0,0,0,1.45,11.13c.14,1,.22,2.27.85,2.81,4.55,3.85,8.79,8.4,14,11.09,9.49,4.94,19.6,8.7,29.4,13.06,15.16,6.75,22.64,18.71,23,35.09.26,12.61.07,25.24.05,37.86,0,5-2.17,7.92-5.93,8s-6-2.78-6-7.8q0-18.36,0-36.74c0-12.41-5.32-21.21-17-26-8.41-3.48-16.71-7.23-25.38-11-.55,1.46-1.11,2.78-1.54,4.14q-4.67,14.61-9.3,29.24c-2.34,7.35-6,8.59-12.15,4.09L166.73,178.6v4.62c0,13.62,0,27.24,0,40.86,0,3.31-.94,6-4.4,6.94-4.18,1.18-7.6-1.75-7.64-6.71-.09-10.5,0-21,0-31.49V179.14c-1.15.65-2,1-2.7,1.54-5.15,3.75-10.28,7.53-15.42,11.28-6.27,4.57-9.85,3.43-12.18-3.86-3.54-11-7.07-22.07-10.72-33.47-2.69,1.13-5.2,2.15-7.69,3.22-6.64,2.87-13.34,5.62-19.89,8.68-9.62,4.49-14.69,12.2-14.85,22.81-.18,12.37,0,24.74-.06,37.11,0,1,0,2,0,3-.18,4-2.65,6.73-6.07,6.73s-5.86-2.63-5.88-6.79c-.05-10.5-.08-21,0-31.49,0-5-.09-10.05.73-14.93,2.1-12.59,9.22-21.68,20.8-27,10.2-4.69,20.78-8.59,30.74-13.73,5.19-2.68,9.43-7.24,14-11,.47-.39.51-1.35.63-2.07.43-2.58.61-5.23,1.25-7.76,1.2-4.7.22-8.14-3.46-11.83a38.73,38.73,0,0,1-11.4-27.37c-.2-14.84-.91-29.85.86-44.51,2.47-20.34,18-34.22,38.25-36.93A26.71,26.71,0,0,0,154.5,0ZM124.09,55.57C125,67.82,122.2,80,126.72,91.68a33.65,33.65,0,0,0,6,9.8,77.21,77.21,0,0,0,10.75,9.84c8.38,6.52,22.71,7.2,31.91,1.82,17.79-10.4,26.08-29.73,21.37-50-18.32,3.36-34.11-.85-46.09-16.18C143.57,55.16,134.83,57.5,124.09,55.57Zm73.17-5.13c.46-14.19-3.17-26.48-16.27-33.5-13.55-7.26-27.7-7-41.21.39-9.95,5.47-14.21,14.77-15.34,25.73,9.43,2.73,15.73-.3,20.31-9.62,1.32-2.68,3-4.64,6.19-4.59,3,0,4.57,2,5.86,4.53C165.05,49.42,179.14,55.43,197.26,50.44ZM160.77,157.81c6.49-7.31,12.37-14.65,19-21.2,4.32-4.23,3.66-8.4,2.33-13.2-14.36,7.09-28.61,7-43.69-.44.22,4-.83,8.14.8,10.22C145.85,141.62,153.29,149.4,160.77,157.81ZM134,179l17.88-13.14-20.82-23.46a58.53,58.53,0,0,0-5.29,4.63,3.9,3.9,0,0,0-.87,3.16C127.79,159.63,130.82,169,134,179Zm53.45,0c3.22-10.11,6.33-19.8,9.35-29.52a2.27,2.27,0,0,0-.5-1.94c-1.85-1.77-3.84-3.41-5.87-5.17l-20.84,23.5Z"/><path class="cls-1" d="M301.5,384c-3.05-1.93-3.91-4.7-3.89-8.25.11-24.87.06-49.74.06-74.61v-4.59H86.33v4.59c0,24.74-.06,49.49.07,74.23,0,3.66-.74,6.59-3.9,8.63H78c-3-2.33-3.73-5.45-3.71-9.17.14-17.62.07-35.24.07-52.86v-4.58H70.08c-7.88,0-15.75.08-23.62-.12a17.79,17.79,0,0,1-15.34-8.66c-7-11.25-13.88-22.54-20.41-34.05-5.9-10.41.48-23,12.68-25.54a34.81,34.81,0,0,1,7.06-.65q161.58,0,323.14.11a30.13,30.13,0,0,1,13.2,3.22,16.12,16.12,0,0,1,6.74,22.23c-6.79,12.08-14,23.91-21.41,35.63-3.25,5.14-8.57,7.59-14.68,7.72-7.74.17-15.49.08-23.24.11h-4.55v4.31c0,18-.06,36,.05,54,0,3.74-1,6.58-4.45,8.32Zm8.15-78.65c9.49,0,18.36,0,27.22,0,3.21,0,5.27-1.79,6.85-4.47,6.1-10.31,12.29-20.58,18.43-30.87,2.76-4.64,1.23-8.24-4.06-9.35a24.41,24.41,0,0,0-4.84-.3q-161,0-322.08,0a35.37,35.37,0,0,0-4.12.1c-6.13.76-8.06,4.67-4.92,10,4.38,7.42,8.74,14.86,13.26,22.19,8.92,14.42,4.71,12.62,22.38,12.73,5.44,0,10.89,0,16.17,0a7.85,7.85,0,0,0,.35-1.24c0-4,0-8,.07-12,0-5.65,2.09-7.79,7.65-7.79q110,0,220.09,0c5.34,0,7.48,2.22,7.54,7.56C309.68,296.26,309.65,300.61,309.65,305.35Z"/><path class="cls-1" d="M221.25,384c-2.65-2-3.71-4.49-3.92-7.9a25.42,25.42,0,0,0-50.73.32,9.81,9.81,0,0,1-3.85,7.58h-4.5c-3.53-2.41-4.1-5.84-3.64-9.8a37.55,37.55,0,0,1,74.77.69c.37,3.79-.46,6.85-3.63,9.11Z"/><path class="cls-1" d="M312.84,192.94c0-11.11-.12-22.23,0-33.35.21-15.45-6.09-26.94-20-34a82.59,82.59,0,0,1-8.43-4.85c-2.19-1.47-3.7-1.26-5.88.3a24.2,24.2,0,1,1-25.91-40.81c8.73-4.85,17.6-4.53,25.8,1.2s11.62,14.23,9.95,24.2c-.48,2.87.33,4,2.57,5.17,4.18,2.23,8.33,4.55,12.33,7.08,13.71,8.68,21,21.4,21.32,37.42.5,25.47.21,51,.19,76.44,0,3.84-2.46,6.43-5.81,6.51s-6.07-2.63-6.1-6.66c-.08-12.86,0-25.73,0-38.6ZM264.4,113.53a12.16,12.16,0,0,0,12.42-12.18A12,12,0,0,0,265,89.07,12.2,12.2,0,0,0,252.26,101,12.35,12.35,0,0,0,264.4,113.53Z"/><path class="cls-2" d="M309.65,305.35c0-4.74,0-9.09,0-13.43-.06-5.34-2.2-7.56-7.54-7.56q-110,0-220.09,0c-5.56,0-7.6,2.14-7.65,7.79,0,4,0,8-.07,12a7.85,7.85,0,0,1-.35,1.24c-5.28,0-10.73,0-16.17,0-17.67-.11-13.46,1.69-22.38-12.73-4.52-7.33-8.88-14.77-13.26-22.19-3.14-5.34-1.21-9.25,4.92-10a35.37,35.37,0,0,1,4.12-.1q161,0,322.08,0a24.41,24.41,0,0,1,4.84.3c5.29,1.11,6.82,4.71,4.06,9.35-6.14,10.29-12.33,20.56-18.43,30.87-1.58,2.68-3.64,4.46-6.85,4.47C328,305.37,319.14,305.35,309.65,305.35Z"/></svg>