<svg id="Capa_1" data-name="Capa 1" xmlns="http://www.w3.org/2000/svg" viewBox="0 0 384 384"><defs><style>.cls-1{fill:#fff;}.cls-2{fill:#ec5242;}</style></defs><path class="cls-1" d="M93.57,384c-12.75-6.67-12.74-23.83,0-32.45,6.45-4.36,13.7-5.84,21.3-5.78,2.48,0,3.86-.72,4.82-3,1.33-3.19,3-6.23,4.78-9.86H28.65c-11.28,0-20.29-4.21-25.21-14.76A29.27,29.27,0,0,1,.86,306.2q-.22-111-.08-222c0-15.61,10.81-26.44,26.36-26.53,22.7-.13,45.4-.06,68.1,0,5.41,0,8.45,3.31,7.34,7.85-.89,3.65-3.67,4.85-7,4.89-6.49.08-13,0-19.46,0-16.09,0-32.19,0-48.28,0-9.26,0-14.29,5.08-14.29,14.43q0,110.24,0,220.47c0,9.91,5.11,14.69,15.64,14.69H327.4c9.61,0,19.21,0,28.81,0q15,0,15-14.92,0-109.86,0-219.72c0-10.08-4.87-14.94-14.92-15q-32.55,0-65.11,0a17.35,17.35,0,0,1-5.15-.6c-3-1-4.3-3.29-4.06-6.38a5.8,5.8,0,0,1,5.13-5.6,21.52,21.52,0,0,1,4.1-.17c20.58,0,41.18.46,61.74-.16,16.16-.49,27.31,6.53,31,22V311.25a67.65,67.65,0,0,1-2.61,6.93c-5.21,10.41-14,14.7-25.3,14.7h-95.8c1.79,3.63,3.46,6.67,4.8,9.86,1,2.28,2.33,3.05,4.81,3,7.6-.06,14.84,1.42,21.29,5.79,12.73,8.61,12.73,25.77,0,32.44ZM288,371.1c-.15-6.1-2.6-9.68-8.45-11.11a55.49,55.49,0,0,0-12.92-1.48q-74.26-.15-148.52-.05a34.13,34.13,0,0,0-6.72.25,39.87,39.87,0,0,0-9.58,2.79c-3.72,1.81-5.39,5.2-5,9.6ZM132.54,345.44H252.2c-1.8-3.6-3.54-6.74-4.94-10-.88-2.08-2.17-2.6-4.29-2.58-13.33.08-26.66,0-40,0q-30.47,0-60.92,0c-1.24,0-3.13.22-3.6,1C136.33,337.52,134.59,341.35,132.54,345.44Z"/><path class="cls-1" d="M202.85,0c6.55,2.66,9.58,7.71,10.53,14.58.67,4.9.76,10.8,3.58,14.24s8.54,4.12,13.08,5.79a4.78,4.78,0,0,0,3.65-.46c4.35-2.68,8.54-5.61,12.83-8.41,6.56-4.27,12.73-3.69,18.26,1.74,3,3,6,6,9,9,5.16,5.33,5.77,11.49,1.75,17.69-2.78,4.29-5.79,8.45-8.4,12.84a6.32,6.32,0,0,0-.46,4.62,76,76,0,0,0,4.43,10.68,6.35,6.35,0,0,0,3.58,3c5.07,1.29,10.25,2.12,15.36,3.21,6.71,1.45,10.81,6.44,10.89,13.28.06,4.75.07,9.5,0,14.25a13,13,0,0,1-10.45,12.86c-5.23,1.14-10.55,1.94-15.74,3.23a6.27,6.27,0,0,0-3.57,3,75.48,75.48,0,0,0-4.41,10.7,6.31,6.31,0,0,0,.4,4.62c2.59,4.4,5.58,8.57,8.35,12.88,4,6.25,3.43,12.41-1.67,17.71q-4.54,4.72-9.26,9.28c-5.33,5.16-11.47,5.77-17.65,1.75-4.29-2.79-8.6-5.56-12.74-8.56-1.79-1.3-3.19-1.24-5.08-.32a82.18,82.18,0,0,1-10,4.18,4.67,4.67,0,0,0-3.51,4.17c-.89,5-1.95,10-3,15-1.46,6.8-6.33,10.82-13.21,10.91-4.62.06-9.23.05-13.85,0-6.88-.08-11.85-4.12-13.28-10.84-1.07-5-2.15-10-3-15.06-.37-2.24-1.21-3.47-3.44-4.21-3.53-1.18-6.86-3-10.4-4.11a6.35,6.35,0,0,0-4.6.4c-4.4,2.59-8.57,5.58-12.87,8.35-6.27,4-12.37,3.48-17.67-1.65q-4.84-4.69-9.51-9.56c-4.79-5-5.42-11.25-1.71-17.11,2.81-4.43,5.9-8.68,8.58-13.18a6.32,6.32,0,0,0,.45-4.62,75,75,0,0,0-4.43-10.69,6.42,6.42,0,0,0-3.57-3c-4.94-1.28-10-2.1-15-3.17-7.43-1.59-11.25-6.36-11.29-14q0-6.18,0-12.37c.05-7.82,4-12.66,11.57-14.2,4.88-1,9.75-2.09,14.66-2.9a4.31,4.31,0,0,0,3.86-3.35c1.24-3.65,3-7.11,4.27-10.76a5.29,5.29,0,0,0-.3-4c-2.7-4.49-5.73-8.78-8.57-13.18-4-6.19-3.42-12.51,1.62-17.73,3.12-3.24,6.29-6.43,9.54-9.53,5-4.8,11.25-5.42,17.07-1.69,4.41,2.82,8.65,5.92,13.15,8.6a6.26,6.26,0,0,0,4.62.42A75.33,75.33,0,0,0,166,29.9a6.47,6.47,0,0,0,3-3.6,79.38,79.38,0,0,0,2.41-11.72c.84-6.89,4-11.91,10.52-14.58Zm-3,204.66c1.22-5.88,2.5-11.71,3.63-17.56a13.68,13.68,0,0,1,9.5-11,81.92,81.92,0,0,0,10.69-4.4c6.33-3.34,12.07-2.88,17.81,1.38,4.26,3.17,8.83,5.92,12.63,8.44l11-10.61c-3.08-4.64-6.21-9.45-9.45-14.18a14.11,14.11,0,0,1-1.27-14.86c1.87-4.07,3.6-8.22,5.13-12.44a13.81,13.81,0,0,1,11.36-9.57c5.74-1,11.42-2.34,17.15-3.52V101.27l-18-3.7a13.26,13.26,0,0,1-10.29-8.81c-1.61-4.18-3.21-8.39-5.12-12.44C252,70.7,252.36,65.55,256,60.46c3.23-4.57,6.22-9.31,9-13.56L254.24,36l-14.43,9.64a13.62,13.62,0,0,1-14.16,1.13,70.26,70.26,0,0,0-10.33-4.31c-7.54-2.1-11.41-6.94-12.49-14.58-.7-5-2-10-2.94-14.89h-15c-1.24,6.12-2.44,12.11-3.68,18.09a13.16,13.16,0,0,1-8.52,10.11c-4.28,1.7-8.6,3.31-12.76,5.28-5.63,2.66-10.76,2.21-15.82-1.39-4.56-3.24-9.3-6.22-13.84-9.24L119.49,46.52c3.1,4.67,6.18,9.49,9.46,14.18,3.48,5,3.8,10.08,1.18,15.53a64.37,64.37,0,0,0-4.18,10c-2.07,7.27-6.76,11-14.07,12-5.12.75-10.16,2-15.11,3v15.1c5.9,1.22,11.61,2.46,17.35,3.55a13.63,13.63,0,0,1,11,9.44A118,118,0,0,0,130,141.1c2.77,5.74,2.37,11-1.32,16.19-3.23,4.56-6.22,9.29-9.14,13.68,3.72,3.72,7.13,7.15,10.76,10.79,4.37-2.92,9-5.84,13.45-9,5.42-3.9,10.88-4.36,16.81-1.22a44.18,44.18,0,0,0,8.94,3.74c7.56,2.08,11.38,7,12.42,14.61.69,5,2,9.92,2.95,14.81Z"/><path class="cls-1" d="M192.18,281.58q-71.67,0-143.35-.07a29.56,29.56,0,0,1-10.94-1.7c-8.15-3.37-11.6-10.18-11.63-18.81,0-14.75,0-29.5,0-44.25V105.38c0-14.62,7.53-22.14,22.13-22.15,5,0,10,0,15,0C68,83.29,71,85.88,71,89.68S68,95.94,63.21,96,53.72,96,49,96c-8.17,0-10,1.77-10,9.83V259.21c0,7.64,1.88,9.54,9.47,9.54H336.29c7.58,0,9.45-1.9,9.45-9.57V105.44c0-7.42-2-9.43-9.25-9.44-5.11,0-10.23.06-15.34,0-4.43-.07-7.35-2.64-7.39-6.32s2.9-6.36,7.28-6.41q8.79-.12,17.59,0c11.51.17,19.44,8,19.86,19.53,0,.63,0,1.25,0,1.88q0,77.81,0,155.62c0,10.68-5.3,18.36-14.43,20.6a34.75,34.75,0,0,1-8.17.68Q264,281.61,192.18,281.58Z"/><path class="cls-1" d="M192.75,294.42c9.6,0,19.21,0,28.81,0a17.82,17.82,0,0,1,4.45.39,6.21,6.21,0,0,1,.16,11.91,17.49,17.49,0,0,1-4.8.5q-29,0-58,0a25.4,25.4,0,0,1-2.62-.05c-4.2-.44-6.73-3-6.58-6.67s2.6-6,6.77-6c9.1-.15,18.21-.06,27.31-.07Z"/><path class="cls-2" d="M199.87,204.66h-15c-1-4.89-2.26-9.81-2.95-14.81-1-7.64-4.86-12.53-12.42-14.61a44.18,44.18,0,0,1-8.94-3.74c-5.93-3.14-11.39-2.68-16.81,1.22-4.44,3.2-9.08,6.12-13.45,9-3.63-3.64-7-7.07-10.76-10.79,2.92-4.39,5.91-9.12,9.14-13.68,3.69-5.2,4.09-10.45,1.32-16.19a118,118,0,0,1-4.85-11.75,13.63,13.63,0,0,0-11-9.44c-5.74-1.09-11.45-2.33-17.35-3.55v-15.1c5-1,10-2.25,15.11-3,7.31-1.08,12-4.77,14.07-12a64.37,64.37,0,0,1,4.18-10c2.62-5.45,2.3-10.53-1.18-15.53-3.28-4.69-6.36-9.51-9.46-14.18l10.74-10.71c4.54,3,9.28,6,13.84,9.24,5.06,3.6,10.19,4.05,15.82,1.39,4.16-2,8.48-3.58,12.76-5.28a13.16,13.16,0,0,0,8.52-10.11c1.24-6,2.44-12,3.68-18.09h15c1,4.92,2.24,9.87,2.94,14.89,1.08,7.64,4.95,12.48,12.49,14.58a70.26,70.26,0,0,1,10.33,4.31,13.62,13.62,0,0,0,14.16-1.13L254.24,36,265,46.9c-2.82,4.25-5.81,9-9,13.56-3.59,5.09-4,10.24-1.31,15.86,1.91,4.05,3.51,8.26,5.12,12.44a13.26,13.26,0,0,0,10.29,8.81l18,3.7v15.06c-5.73,1.18-11.41,2.48-17.15,3.52a13.81,13.81,0,0,0-11.36,9.57c-1.53,4.22-3.26,8.37-5.13,12.44a14.11,14.11,0,0,0,1.27,14.86c3.24,4.73,6.37,9.54,9.45,14.18l-11,10.61c-3.8-2.52-8.37-5.27-12.63-8.44-5.74-4.26-11.48-4.72-17.81-1.38a81.92,81.92,0,0,1-10.69,4.4,13.68,13.68,0,0,0-9.5,11C202.37,193,201.09,198.78,199.87,204.66Zm-7.55-44.75a51.12,51.12,0,1,0-50.95-51.26A50.91,50.91,0,0,0,192.32,159.91Z"/><path class="cls-1" d="M192.32,159.91a51.12,51.12,0,1,1,51.06-51.15A50.9,50.9,0,0,1,192.32,159.91Zm38.3-51a38.25,38.25,0,1,0-38.38,38.19A38.37,38.37,0,0,0,230.62,108.91Z"/><path class="cls-1" d="M192.3,102.57a6.12,6.12,0,0,1,6.3,6,6.23,6.23,0,1,1-12.46.15A6.13,6.13,0,0,1,192.3,102.57Z"/></svg>