<svg id="Capa_1" data-name="Capa 1" xmlns="http://www.w3.org/2000/svg" viewBox="0 0 384 384"><defs><style>.cls-1{fill:#fff;}.cls-2{fill:#ec5242;}</style></defs><path class="cls-1" d="M383.93,194.24c-2.17,3.38-5.31,4.26-9.19,4.24-17.95-.07-35.9.06-53.85.11-4.56,0-7.26-2.75-7.29-7.53a118.31,118.31,0,0,0-15.92-59.25c-3-5.16,0-10.2,6.05-10.24,9.1-.06,18.2-.06,27.3.06,1.92,0,2.76-.58,3.46-2.37,4.52-11.47,14.35-17.6,26.38-16.64,11,.88,19.69,8.74,22.45,20.32.07.31.4.55.61.83V132c-2,11.86-8.84,19.41-19.78,21.9-11.68,2.67-24.21-3.13-29.32-14-1.64-3.48-3.63-5-7.41-4.62-2.83.26-5.72,0-8.58.06-3.46,0-3.6.23-2.28,3.3a138.65,138.65,0,0,1,9.64,34.11c.39,2.6.57,5.21.85,7.81.31,2.92,1.75,3.69,4.43,3.67,13.57-.06,27.14,0,40.71,0a23.3,23.3,0,0,1,5.95.45c2.79.72,5.1,2,5.79,5.1Z"/><path class="cls-1" d="M60.68,383.92c-5.12-1.59-10-3.46-14-7.42a25.52,25.52,0,0,1,17.82-43.67,25,25,0,0,1,23.68,15.8c1,2.48,2,3.34,4.72,3.31,12.85-.15,25.69-.17,38.53,0,2.89,0,3.49-.82,3.45-3.55-.17-10.62-.13-21.24,0-31.86,0-2.25-.52-3.5-2.69-4.58a132.24,132.24,0,0,1-40.82-31.65c-3.09-3.53-3.28-7.35-.47-9.93,3-2.73,6.55-2.39,9.79,1.26,12.09,13.62,26.25,24.38,43,31.6,2.82,1.22,4,3.54,4,6.59-.06,13.87,0,27.74-.12,41.6-.05,8-5.12,13.15-13.1,13.21q-20.76.17-41.52,0c-2.39,0-3.7.45-4.64,3-3,8.15-9.09,13.21-17.41,15.55-.7.2-1.52.05-2,.78Z"/><path class="cls-1" d="M324.07.06c5.12,1.59,10.05,3.47,14,7.42a25.54,25.54,0,0,1,5.57,28,25.28,25.28,0,0,1-23.42,15.67,25,25,0,0,1-23.66-15.81c-1-2.51-2.09-3.32-4.75-3.29-12.71.15-25.44.19-38.15,0-3.22-.05-3.87.92-3.81,3.95.2,10.49.15,21,0,31.49A4.27,4.27,0,0,0,252.61,72,129.23,129.23,0,0,1,287,96.84c3.34,3.33,3.79,7.12,1.22,9.89-2.75,3-6.61,2.74-10.13-.72-10.77-10.6-22.84-19.25-36.81-25.14a6.4,6.4,0,0,1-4.18-6.44c0-14.24-.07-28.49.06-42.73.06-7.3,5.45-12.31,13.15-12.36,13.72-.09,27.44-.11,41.15,0,2.8,0,4-.74,5.07-3.43,2.76-7.11,8-11.86,15.21-14.5,1.11-.4,2.52-.21,3.32-1.39Z"/><path class="cls-1" d="M315.84,383.92c-5.44-1.8-10.75-3.83-14.64-8.38-1.71-2-3.55-4-4.22-6.55-1-3.73-3.07-4.48-6.7-4.41-13,.25-25.93.12-38.89.08-9.41,0-14.22-4.89-14.25-14.33,0-13.37,0-26.73-.11-40.1,0-3.54,1.33-5.88,4.64-7.28a115.51,115.51,0,0,0,34.84-23.42c.81-.77,1.57-1.6,2.42-2.34,3-2.62,6.47-2.68,9.05-.19s2.62,6.48-.2,9.37a128.67,128.67,0,0,1-25.4,20.2c-3.3,2-6.67,3.88-10.13,5.58a3.8,3.8,0,0,0-2.4,4.05c.1,10.86.12,21.73,0,32.6,0,2.41.6,3.15,3.08,3.13,13.21-.12,26.43-.09,39.65,0,1.8,0,2.81-.33,3.59-2.24,5-12.26,16.45-18.84,28.53-16.54a25.84,25.84,0,0,1,20.95,24.46c.41,12.32-7.7,22.46-20.62,25.8a3.89,3.89,0,0,0-.95.53Z"/><path class="cls-1" d="M68.91.06c2.28.85,4.65,1.53,6.83,2.57,5.6,2.68,10,6.82,12.11,12.66,1.27,3.55,3.15,4.16,6.53,4.11,13-.21,25.92-.11,38.88-.08,9.44,0,14.32,4.87,14.34,14.23,0,10.47,0,20.93,0,31.68a164.66,164.66,0,0,1,17.13-4.67c4.13-.78,7.37.93,8.19,4.42.91,3.87-1,6.88-5.35,7.94a146.89,146.89,0,0,0-23.39,7.53c-5.13,2.21-9.42-1-9.41-6.72,0-12.74-.05-25.48.14-38.22.05-2.86-.77-3.49-3.52-3.46q-19.44.23-38.88,0c-2.42,0-3.35.81-4.2,3A25.36,25.36,0,0,1,60.4,50.91,25.82,25.82,0,0,1,39.11,26.38,25.72,25.72,0,0,1,58.63.8a19.32,19.32,0,0,0,2-.74Z"/><path class="cls-1" d="M383.93,260.22c-.95.69-.67,1.82-.94,2.74a25.52,25.52,0,0,1-23.32,18.48,25.06,25.06,0,0,1-24.94-16.08c-1-2.51-2.13-3-4.53-3-8.72.15-17.45,0-26.18.14-2.88,0-5.14-.84-6.66-3.27s-1-4.93.45-7.37a112.15,112.15,0,0,0,12.92-33.28c.37-1.69.59-3.48,1.75-4.89a6.08,6.08,0,0,1,7.73-1.82,6,6,0,0,1,3.52,7.11A133.35,133.35,0,0,1,315,246.35c-.4.89-.77,1.81-1.38,3.27h18.74c2,0,1.73-1.83,2.19-3a25.6,25.6,0,0,1,43-7.6c3.34,3.74,4.9,8.29,6.37,12.91Z"/><path class="cls-1" d="M190.13,383.92c-3.35-2.17-4.27-5.3-4.24-9.2.15-15,0-30,.12-45,0-2.54-.35-3.66-3.31-3.84-5.33-.33-10.63-1.24-15.92-2-4.33-.65-6.93-3.67-6.44-7.26.53-3.94,3.69-6.24,8.29-5.38a126.71,126.71,0,0,0,47.19,0c4.48-.84,7.58,1.33,8.14,5.08.59,4-1.64,6.82-6.36,7.56-5.17.81-10.35,1.69-15.55,2-3,.17-3.33,1.29-3.31,3.84.11,15,0,30,.11,45,0,3.9-.9,7-4.23,9.21Z"/><path class="cls-1" d="M194.62.06c3.35,2.18,4.27,5.31,4.23,9.2-.14,15.1,0,30.19-.12,45.29,0,2.59.71,3.29,3.25,3.49,5.33.43,10.63,1.25,15.91,2.07,4.39.67,6.82,3.63,6.29,7.31s-3.58,6.06-8,5.33a143.57,143.57,0,0,0-24.12-2.28c-3.72,0-6.31-3-6.3-6.95,0-18.46.15-36.92.12-55.39A8.94,8.94,0,0,1,190.13.06Z"/><path class="cls-2" d="M119.9,119.36c3.62-2.28,6.33-5.63,9.65-8.27,5.37,2.84,9.37-.18,13.93-2.67,34.2-18.7,68.41-18.6,101.4,2.45,25.64,16.36,40.09,40.47,43.6,70.89,2.77,24-3.27,45.79-16.76,65.65a10,10,0,0,1-.64.92c-3.36,3.89-5.59,8-2.4,13.07-4.31,2.74-7.11,7.18-11.28,10.08-5.53-3-9.64-.05-14.18,2.84a92.56,92.56,0,0,1-39.87,14,94.09,94.09,0,0,1-63.74-15.16c-18.09-11.82-31.22-27.89-38.22-48.47-11.86-34.86-5.7-66.7,17.2-95.27C121.41,125.88,120.39,122.81,119.9,119.36Z"/><path class="cls-1" d="M119.9,119.36c3.09,4.21,3,6.35-.3,10.29C75,182.5,98.12,263,164.08,283.54c29.27,9.11,56.84,4.51,82.39-12.41,4.92-3.26,6.58-3.24,10.93.35,1.67,5.1,1,6.92-3.47,10.08-63.35,44.32-153.1,8.08-167.84-67.9-6.68-34.45,1.52-65.25,23.78-92.29C113.23,117.3,115.31,117,119.9,119.36Z"/><path class="cls-1" d="M268.68,261.4c-3.83-3.81-4-6.23-.56-10.7,14.26-18.65,21.06-39.76,19.92-63.18a95.65,95.65,0,0,0-69.9-87.85c-27.85-7.58-53.93-3.28-78.28,12.1-4.58,2.89-6.15,2.77-10.31-.68-1.78-4.86-1.09-7.09,3.07-9.84,64.93-43,153.42-5,166.59,71.78,5.39,31.36-1.8,59.93-20.94,85.41C275.15,262.58,273.29,263.11,268.68,261.4Z"/><path class="cls-1" d="M67.69,134.36c-1.62,0-3.25.11-4.86,0-6.76-.53-11.87-.17-15.67,7.75-5,10.45-18.3,13.95-29.26,10.08a25.85,25.85,0,0,1-17-26.67c1.15-11.35,10.17-21,21.11-22.7,12-1.82,23.42,4.33,27.82,15.41,1,2.66,2.18,3.54,5,3.44,6.72-.23,13.46-.17,20.19,0a4.81,4.81,0,0,0,4.78-2.55,132.1,132.1,0,0,1,31-33.7c2.46-1.89,5-2.92,7.91-1.36,4.33,2.27,4.57,7.78.29,11.13a125.71,125.71,0,0,0-23.85,24.15A78.19,78.19,0,0,0,88,130.25a7.07,7.07,0,0,1-7.23,4.18c-4.35-.16-8.72,0-13.08,0Z"/><path class="cls-1" d="M71.12,249.63a143.92,143.92,0,0,1-9.24-26.79c-.27-1.22-.6-2.42-.82-3.65-.68-3.74,1.33-7,4.7-7.74a6.11,6.11,0,0,1,7.63,4.81,146.73,146.73,0,0,0,6,20A111.38,111.38,0,0,0,87,252.07c3.18,5.33.15,10.39-6.12,10.39-8.73,0-17.46.06-26.18-.11-2.59-.05-3.76.67-4.75,3.22-4.41,11.24-16,17.54-28.08,15.6-11.25-1.8-20.39-12.07-21-23.59a25.58,25.58,0,0,1,18.27-26.11,25.28,25.28,0,0,1,30.86,15c1,2.57,2.2,3.29,4.77,3.2C60.07,249.5,65.38,249.63,71.12,249.63Z"/><path class="cls-1" d="M36.24,198.42c-9.22,0-18.45.05-27.67,0-4.79,0-7.66-2.46-7.74-6.29s2.9-6.44,7.86-6.55c1,0,2,0,3,0,14.34,0,28.67-.05,43,.05,2.62,0,3.81-.33,4-3.48a127.31,127.31,0,0,1,5.84-30.79c1.42-4.51,4.63-6.62,8.28-5.5s5.39,4.58,4,9.09a121,121,0,0,0-5.69,36.82c0,4.2-2.94,6.85-7.21,6.85H36.24Z"/><path class="cls-2" d="M345.76,127.84c0-7.26,5.55-12.58,12.91-12.49A12.61,12.61,0,0,1,371.17,128a13,13,0,0,1-12.87,12.85A12.77,12.77,0,0,1,345.76,127.84Z"/><path class="cls-2" d="M77.21,358.36a12.45,12.45,0,0,1-12.67,12.78,13,13,0,0,1-12.69-12.65,12.82,12.82,0,0,1,12.74-12.86C71.92,345.63,77.21,351,77.21,358.36Z"/><path class="cls-2" d="M320.17,38.36A12.22,12.22,0,0,1,307.54,26c-.08-7.55,5.38-13.25,12.63-13.18a13.05,13.05,0,0,1,12.73,13A12.86,12.86,0,0,1,320.17,38.36Z"/><path class="cls-2" d="M307.54,358.13a12.22,12.22,0,0,1,12.84-12.5,12.84,12.84,0,0,1,12.51,12.73A13,13,0,0,1,320,371.15C312.85,371.09,307.49,365.48,307.54,358.13Z"/><path class="cls-2" d="M77.21,25.63c0,7.38-5.34,12.76-12.64,12.73A12.84,12.84,0,0,1,51.85,25.47,13,13,0,0,1,64.54,12.84,12.47,12.47,0,0,1,77.21,25.63Z"/><path class="cls-2" d="M345.76,256.05a12.75,12.75,0,0,1,12.63-12.93,13,13,0,0,1,12.78,12.93,12.61,12.61,0,0,1-12.6,12.58A12.29,12.29,0,0,1,345.76,256.05Z"/><path class="cls-2" d="M39,128.07a12.78,12.78,0,0,1-12.78,12.8,13,13,0,0,1-12.63-13.09,12.63,12.63,0,0,1,12.74-12.43A12.3,12.3,0,0,1,39,128.07Z"/><path class="cls-2" d="M39,256.13a12.32,12.32,0,0,1-12.9,12.5A12.61,12.61,0,0,1,13.57,256a13,13,0,0,1,12.85-12.85A12.77,12.77,0,0,1,39,256.13Z"/><path class="cls-1" d="M243.36,181.57c0-12.27-4.73-18.43-16.57-21.33-2.08-.51-2.42-1.49-2.42-3.35,0-4.49.23-9-.38-13.47-2.05-15.09-14.16-26.86-28.26-28a32.19,32.19,0,0,0-34.41,24.37c-1.29,5.55-1.08,11.17-.91,16.77.07,2.56-.88,3.38-3.22,3.87-9.94,2-15.75,9.18-15.78,19.31q-.07,28.31,0,56.6c0,11.57,8,19.44,19.56,19.52,10.47.07,20.94,0,31.42,0h30.67c12.57-.1,20.26-7.75,20.29-20.32Q243.41,208.56,243.36,181.57Zm-12.76,54.7c0,4.52-2.4,6.79-7,6.81-10.47.07-20.94,0-31.4,0-10.09,0-20.18,0-30.28,0-5.58,0-7.73-2.14-7.74-7.64q0-27.53,0-55.05c0-5.3,2.21-7.64,7.46-7.64,18.55,0,37.1.14,55.64.2,2.24,0,4.49-.3,6.71-.18,4.36.24,6.63,2.57,6.65,6.94Q230.68,208,230.6,236.27Z"/><path class="cls-2" d="M192.41,159.9c-5.47,0-10.94,0-16.41,0-1.6,0-3,0-2.92-2.25.12-3.86-.22-7.76.18-11.58,1.19-11.32,9.29-18.32,20.38-17.91,9.84.37,17.51,8.55,18,19.31.14,3.24-.07,6.49.08,9.72.1,2.2-.83,2.77-2.86,2.73C203.36,159.83,197.89,159.9,192.41,159.9Z"/><path class="cls-1" d="M210.91,199.9A19.16,19.16,0,1,0,183,221.4c1.85,1,3,2.08,3.43,4.34.59,3,2.92,4.55,6,4.53s5.4-1.6,5.92-4.65c.4-2.33,1.72-3.25,3.52-4.27A19,19,0,0,0,210.91,199.9Zm-18.38,11c-3.95.06-6.39-2.28-6.37-6.13a6.22,6.22,0,1,1,12.43.05C198.58,208.5,196.25,210.84,192.53,210.89Z"/></svg>